<svg width="29" height="30" viewBox="0 0 29 30" fill="none" xmlns="http://www.w3.org/2000/svg">
<path d="M18.5082 6.63021H22.6795L22.6799 11.1129L24.7946 8.08836V5.55307C24.7946 5.39821 24.7277 5.24971 24.6088 5.13971L19.2144 0.171071C19.0956 0.0616429 18.9343 0 18.7658 0H2.0868C1.0373 0 0.183285 0.786286 0.183285 1.75307V28.2469C0.183285 29.2136 1.03722 30 2.0868 30H22.891C23.9405 30 24.7944 29.2136 24.7944 28.2469V20.725L22.6802 23.7051L22.6805 28.0518H2.29827V1.94814H17.7226V5.9065C17.7226 6.30643 18.0743 6.63021 18.5082 6.63021Z" fill="white"/>
<path d="M27.1562 13.9374L26.2822 13.4114C26.1395 13.3256 25.9485 13.3624 25.8552 13.4938L21.1491 20.1271L20.2442 19.5824L24.9503 12.9491C25.0436 12.8176 25.0035 12.6416 24.8609 12.5558L23.9868 12.0297C23.8442 11.9439 23.653 11.9807 23.5599 12.1121L16.5134 22.0445C16.4834 22.0867 16.4663 22.1355 16.4635 22.1859L16.2793 25.6329C16.274 25.7335 16.3269 25.8296 16.4187 25.8845C16.5104 25.9397 16.6271 25.9459 16.7249 25.901L20.0782 24.3615C20.1274 24.3391 20.1689 24.3049 20.199 24.2626L27.2454 14.3303C27.3389 14.1993 27.2987 14.0233 27.1562 13.9374Z" fill="white"/>
<path d="M30.0435 9.8675L26.8743 7.95978C26.7317 7.874 26.5405 7.91086 26.4473 8.04221L24.3099 11.055C24.2168 11.1864 24.2567 11.3626 24.3994 11.4484L27.5686 13.356C27.7111 13.4419 27.9024 13.405 27.9956 13.2736L30.1329 10.2609C30.2263 10.1294 30.1862 9.95336 30.0435 9.8675Z" fill="white"/>
<path d="M5.37863 6.24729H11.4272C11.8555 6.24729 12.2027 5.92743 12.2027 5.533C12.2027 5.13858 11.8555 4.81872 11.4272 4.81872H5.37863C4.95034 4.81872 4.60317 5.13858 4.60317 5.533C4.60317 5.92743 4.9505 6.24729 5.37863 6.24729Z" fill="white"/>
<path d="M16.8554 9.10443C16.8554 8.71 16.5081 8.39014 16.08 8.39014H5.37863C4.95034 8.39014 4.60317 8.71 4.60317 9.10443C4.60317 9.49886 4.95034 9.81872 5.37863 9.81872H16.08C16.5082 9.81872 16.8554 9.49886 16.8554 9.10443Z" fill="white"/>
<path d="M5.37863 13.3901H11.4272C11.8555 13.3901 12.2027 13.0703 12.2027 12.6759C12.2027 12.2814 11.8555 11.9616 11.4272 11.9616H5.37863C4.95034 11.9616 4.60317 12.2814 4.60317 12.6759C4.60317 13.0703 4.9505 13.3901 5.37863 13.3901Z" fill="white"/>
<path d="M5.37863 16.9616H11.4272C11.8555 16.9616 12.2027 16.6417 12.2027 16.2473C12.2027 15.8529 11.8555 15.533 11.4272 15.533H5.37863C4.95034 15.533 4.60317 15.8529 4.60317 16.2473C4.60317 16.6417 4.9505 16.9616 5.37863 16.9616Z" fill="white"/>
<path d="M5.70687 26.1924C5.55589 26.3721 5.82823 26.6269 5.98108 26.4448C6.46287 25.8715 6.86076 25.254 7.19304 24.6023C7.4004 24.7222 7.67266 24.6982 7.89599 24.6169C8.21789 24.5 8.49077 24.2744 8.75063 24.0701C8.90424 23.9494 9.08307 23.7501 9.2957 23.731C9.45808 23.7166 9.67738 23.8371 9.83968 23.8627C10.2638 23.9293 10.7591 23.8162 11.1686 23.723C11.5572 23.6346 12.0122 23.4949 12.2409 23.1708C12.3776 22.9771 12.0417 22.7982 11.9061 22.9907C11.723 23.2501 11.276 23.331 10.9739 23.3997C10.6192 23.4805 10.2078 23.5601 9.84232 23.5027C9.56687 23.4596 9.34409 23.3061 9.06089 23.4224C8.68153 23.5781 8.39174 23.9053 8.05675 24.1262C7.90685 24.2251 7.73555 24.3201 7.54805 24.3334C7.47089 24.3389 7.408 24.3129 7.35573 24.2694C7.39699 24.1813 7.43793 24.0927 7.47694 24.0034C7.85505 23.1388 8.02604 22.2608 8.20152 21.3501C8.2907 20.8873 8.43905 20.1581 7.71896 20.1136C7.08269 20.0744 6.53282 20.9198 6.32949 21.3653C6.14765 21.7637 6.12741 22.2266 6.14129 22.652C6.14989 22.9171 6.2535 23.1924 6.32988 23.4666C5.71928 23.5568 5.18111 24.1249 5.27541 24.688C5.36823 25.2421 6.1205 24.956 6.40145 24.7509C6.68581 24.5434 6.77786 24.2842 6.78089 24.0046C6.83757 24.0907 6.88495 24.1939 6.93396 24.2905C6.60633 24.9674 6.19557 25.6109 5.70687 26.1924ZM6.38649 24.1709C6.3291 24.4065 6.0055 24.6391 5.75069 24.6608C5.55023 24.6779 5.67252 24.3481 5.71215 24.2744C5.83653 24.0429 6.1447 23.8917 6.40378 23.8266C6.41588 23.9428 6.41394 24.0579 6.38649 24.1709ZM6.71032 23.4794C6.64433 23.1954 6.55275 22.9102 6.52902 22.6521C6.48311 22.1539 6.57919 21.6318 6.84742 21.1961C7.015 20.9238 7.35659 20.5065 7.71896 20.4708C8.04256 20.4391 7.8452 21.164 7.81721 21.3096C7.73059 21.7592 7.66878 22.2054 7.54805 22.6499C7.43591 23.0626 7.29385 23.4713 7.12395 23.8709C7.03361 23.6639 6.91597 23.5313 6.71032 23.4794Z" fill="white"/>
</svg>
