<svg width="24" height="32" viewBox="0 0 24 32" fill="none" xmlns="http://www.w3.org/2000/svg">
<path d="M12.7079 0.333809C12.2622 0.110939 11.7375 0.110939 11.2918 0.333809L2.34914 4.80513L2.94703 4.98118C2.96494 4.98645 2.98277 4.99206 3.00049 4.99796L11.9998 7.99773L20.9944 4.99951L21.6162 4.78793L12.7079 0.333809ZM0.916504 12.8333V7.68437L2.02568 8.01098L4.08317 8.69682V12.8333C4.08317 13.7078 3.37428 14.4167 2.49984 14.4167C1.62539 14.4167 0.916504 13.7078 0.916504 12.8333ZM5.6665 11.25C5.6665 10.5785 5.77102 9.93131 5.96468 9.32398L11.499 11.1688C11.8241 11.2771 12.1754 11.2771 12.5005 11.1688L18.035 9.32398C18.2287 9.93131 18.3332 10.5785 18.3332 11.25C18.3332 14.7477 15.4976 17.5833 11.9998 17.5833C8.50203 17.5833 5.6665 14.7477 5.6665 11.25Z" fill="white"/>
<path d="M15.6409 18.0214C16.0101 17.659 16.5332 17.4999 17.0416 17.5952C20.5166 18.2469 23.0832 21.5233 23.0832 24.9439V28.3521C23.0832 30.2978 21.45 31.7448 19.5998 31.7448H4.39984C2.54973 31.7448 0.916504 30.2978 0.916504 28.3521V24.9439C0.916504 21.5542 3.43525 18.3109 6.85658 17.615C7.36664 17.5113 7.89508 17.6649 8.27009 18.0259L11.9891 21.6052L15.6409 18.0214Z" fill="white"/>
</svg>
