<svg width="30" height="30" viewBox="0 0 30 30" fill="none" xmlns="http://www.w3.org/2000/svg">
<path d="M0 3.21428C0 1.50843 1.34162 0 3.14815 0H26.8518C28.6583 0 30 1.50843 30 3.21428V16.6667H25V13.3333C25 12.4128 24.2538 11.6667 23.3333 11.6667H16.6667C15.7462 11.6667 15 12.4128 15 13.3333V16.6667H0V3.21428ZM0 20V21.7857C0 23.4915 1.34162 25 3.14815 25H8.94162L7.053 27.2663C6.46373 27.9735 6.55927 29.0243 7.2664 29.6137C7.97353 30.203 9.02447 30.1073 9.61375 29.4003L13.2807 25H16.7193L20.3863 29.4003C20.9755 30.1073 22.0265 30.203 22.7337 29.6137C23.4407 29.0243 23.5363 27.9735 22.947 27.2663L21.0583 25H26.8518C28.6583 25 30 23.4915 30 21.7857V20H0Z" fill="white"/>
<path d="M21.6666 15V16.6667H18.3333V15H21.6666Z" fill="white"/>
</svg>
